<svg xmlns="http://www.w3.org/2000/svg" width="41.005" height="35" viewBox="0 0 41.005 35">
  <g id="Layer_2" data-name="Layer 2" transform="translate(-0.005 -0.011)">
    <g id="Layer_1" data-name="Layer 1" transform="translate(0.005 0.011)">
      <path id="Path_5" data-name="Path 5" d="M1.542,29.019c0,1.75.058,3.273-.035,4.79,0,.414-.484.805-.747,1.2C.51,34.6.049,34.188.043,33.774q-.076-5.543,0-11.085c0-.391.5-.776.758-1.167.245.408.683.811.706,1.231.082,1.523.035,3.046.035,4.668H15.037c0-2.27,0-4.551-.041-6.826,0-.239-.513-.548-.846-.683-1.342-.531-2.678-1.068-4.055-1.494A4.557,4.557,0,0,1,6.77,14.392,14.262,14.262,0,0,1,11.233,1.65,5.388,5.388,0,0,1,17.313.46C24.571,3.132,31.9,5.64,39.192,8.2c1.925.677,2.334,2.025,1.167,3.646s-3.016,1.978-4.936,1.832a28.271,28.271,0,0,1-1.616,4.6,29.7,29.7,0,0,1-3.611,5.134,3.62,3.62,0,0,1-4.347.77c-3.011-1.167-6.062-2.235-9.335-3.431,0,2.334-.076,4.475.029,6.61.07,1.359-.473,1.7-1.75,1.68-3.874-.058-7.748,0-11.622,0ZM9.08,7.087c4.271,1.558,8.226,3.028,12.206,4.422a2.025,2.025,0,0,0,1.505-.228,5.986,5.986,0,0,1,6.383-.082,1.709,1.709,0,0,0,.753.274,2.66,2.66,0,0,0,1.324-.21c1.371-.84,2.684-1.75,4.084-2.707-.344-.146-.694-.321-1.062-.449l-16.926-6C14.489,1.09,13.135,1.428,11.233,3.8,10.457,4.765,9.862,5.88,9.08,7.087ZM24.6,22.093c-.764-3.769.292-7.036,1.75-10.537a29.493,29.493,0,0,0-2.917,1.167,3.536,3.536,0,0,1-3.209.082c-2.077-.852-4.207-1.575-6.319-2.334C12.2,9.847,10.486,9.234,8.421,8.488c-.093,1.949-.3,3.641-.21,5.315a3.1,3.1,0,0,0,1.92,3.016C14.88,18.552,19.652,20.291,24.6,22.093ZM27.75,12.3a15.431,15.431,0,0,0-1.867,7.941c.07,1.074.093,2.48,1.319,2.666a3.778,3.778,0,0,0,2.62-1.167,14.5,14.5,0,0,0,3.909-8.32c.2-1.272.665-1.464,1.849-1.394a7.684,7.684,0,0,0,3.051-.63c.373-.14.537-.84.8-1.289-.519-.187-1.167-.653-1.54-.513-1.505.525-2.952,1.237-4.4,1.9a1.243,1.243,0,0,0-.729,1.523,7.719,7.719,0,0,1-1.709,5.8c-.583.788-1.371,1.552-2.5,1.167a2.009,2.009,0,0,1-1.208-2.456c.274-1.61.782-3.186,1.219-4.889Zm3.594,1.167c-1.7-.111-2.976,2.806-2.2,5.134a6.721,6.721,0,0,0,2.2-5.123Z" transform="translate(-0.005 -0.011)" fill="#048a44"/>
      <path id="Path_6" data-name="Path 6" d="M22.062,22.973a2.066,2.066,0,1,1-2.091-2.054,2.042,2.042,0,0,1,2.091,2.054Zm-.913-.043c-.58-.333-.913-.678-1.234-.666s-.709.555-.666.709c.1.327.481.759.771.789S20.619,23.344,21.15,22.93Z" transform="translate(-7.535 -8.808)" fill="#048a44"/>
    </g>
  </g>
</svg>
