<svg xmlns="http://www.w3.org/2000/svg" viewBox="0 0 46.28 60"><defs><style>.cls-1{fill:#048a44;}</style></defs><g id="Layer_2" data-name="Layer 2"><g id="Layer_1-2" data-name="Layer 1"><path class="cls-1" d="M0,29.89V4.51C0,1.18,1.15,0,4.47,0H42c3.09,0,4.31,1.21,4.31,4.27,0,15.06,0,30.11-.05,45.16A4.21,4.21,0,0,1,45.17,52c-2.2,2.37-4.5,4.65-6.87,6.85A4.23,4.23,0,0,1,35.75,60c-10.51.07-21,0-31.53,0C1.23,60,0,58.78,0,55.82Q0,42.85,0,29.89ZM3.26,30q0,12.48,0,25c0,1.06,0,1.94,1.5,1.94q14.45-.06,28.89,0c1,0,1.46-.41,1.43-1.44,0-1.62,0-3.24,0-4.85,0-1.15.43-1.54,1.54-1.5,1.49.07,3-.08,4.47,0s2-.48,2-2q-.07-21,0-41.94c0-1.55-.48-2-2-2q-17.89.09-35.79,0c-1.54,0-2,.44-2,2C3.3,13.42,3.26,21.68,3.26,30Z"/><path class="cls-1" d="M33,36.72a9.21,9.21,0,0,1,1.23,1.53,4,4,0,0,1,.12,1.31c-.45,0-1,.15-1.33-.08a37.78,37.78,0,0,1-3-2.82c-.2-.2-.41-.72-.32-.81,1.22-1.26,2.49-2.46,3.75-3.68.26.38.78.81.72,1.14s-.57.88-.89,1.31c.16.12.25.23.34.23,4.47,0,3.58.47,3.67-3.56,0-1.68,0-3.36,0-5,0-1-.43-1.45-1.45-1.43-1.62,0-3.24.08-4.85,0-.44,0-.85-.62-1.28-1,.42-.27.82-.76,1.25-.79a48.82,48.82,0,0,1,5.41,0,2.68,2.68,0,0,1,2.71,2.77c.1,2.8.09,5.6,0,8.39a2.53,2.53,0,0,1-2.69,2.54C35.45,36.78,34.41,36.72,33,36.72Z"/><path class="cls-1" d="M13.17,47.27c-.35-.45-.56-.61-.61-.81-.14-.57-.22-1.16-.33-1.74.54.15,1.22.14,1.61.47,3.52,2.93,3.5,2.94.16,6.06-.23.21-.43.52-.7.6A5.9,5.9,0,0,1,12,52a4.94,4.94,0,0,1,.12-1.45,7.54,7.54,0,0,1,1.21-1.45c-1.36,0-2.38,0-3.39,0a2.61,2.61,0,0,1-2.79-2.81q-.09-3.91,0-7.83A2.9,2.9,0,0,1,10,35.38a47.84,47.84,0,0,1,5.22,0c.46,0,.89.59,1.33.91-.46.29-.9.8-1.39.84-1.54.11-3.1.07-4.65,0-1.12,0-1.55.46-1.53,1.57.05,2.12.12,4.24,0,6.34-.12,1.71.42,2.43,2.16,2.18A17.79,17.79,0,0,1,13.17,47.27Z"/><path class="cls-1" d="M12.61,24.63c-.76,0-1.76.07-2.74,0a2.65,2.65,0,0,1-2.76-2.87q-.08-3.9,0-7.82a2.82,2.82,0,0,1,3-3c1.61,0,3.23-.08,4.84,0,.52,0,1,.58,1.51.89-.53.3-1,.81-1.6.85-1.54.13-3.1,0-4.64.11-.47,0-1.24.7-1.26,1.1C8.9,16.76,9,19.61,9,22.62h3.69l-.42-2.38a8.55,8.55,0,0,1,2.26,1.06c2.62,2.41,2.63,2.49,0,4.87A11.85,11.85,0,0,1,12,27.57Z"/><path class="cls-1" d="M22.89,51.69c-4.49,0-4.67-.23-4.44-4.73.08-1.58.7-2.42,2.37-2.38s3.21,0,4.82,0a1.82,1.82,0,0,1,2,2,1.09,1.09,0,0,1,0,.18C28,51.52,27.79,51.69,22.89,51.69Zm2.85-5.09H20.46v3.08h5.28Z"/><path class="cls-1" d="M23.08,14.82H22.9c-4.49,0-4.82-.39-4.43-5,.11-1.34.7-2.09,2.07-2.11,1.67,0,3.35,0,5,0a1.87,1.87,0,0,1,2.07,2.1V10C27.86,14.75,27.79,14.82,23.08,14.82ZM20.46,9.68v3.14h5.21V9.68Z"/><path class="cls-1" d="M23.17,20.28c4.61,0,4.57,0,4.5,4.64,0,1.75-.79,2.49-2.48,2.46-1.49,0-3,0-4.46,0s-2.19-.76-2.28-2.28C18.16,20.5,18.35,20.28,23.17,20.28Zm-2.73,1.94v3.15h5.25V22.22Z"/><path class="cls-1" d="M23,39.73h-.18c-4.32,0-5.32-1.22-4.26-5.49a2.49,2.49,0,0,1,1.7-1.52,41.8,41.8,0,0,1,5.37-.07,1.8,1.8,0,0,1,2,2v.18C27.66,39.6,28,39.86,23,39.73Zm2.64-1.94V34.61H20.44v3.18Z"/></g></g></svg>