<svg xmlns="http://www.w3.org/2000/svg" viewBox="0 0 59.19 60"><defs><style>.cls-1{fill:#048a44;}</style></defs><g id="Layer_2" data-name="Layer 2"><g id="Layer_1-2" data-name="Layer 1"><path class="cls-1" d="M53.41,11.63A10.91,10.91,0,0,1,42,22.53a3.75,3.75,0,0,0-3.12,1.28Q30,33.42,21,43a7,7,0,0,1-12.27-5A6.82,6.82,0,0,1,11,33.21q9.5-8.85,19-17.69a4.49,4.49,0,0,0,1.58-3.75,10.8,10.8,0,0,1,9-10.88,1.61,1.61,0,0,1,1.13.45,1,1,0,0,1,0,1.28L38.68,7.89c-.18.31-.38.61-.54.92a1.08,1.08,0,0,0,.4,1.52c2.11,1.27,4.22,2.52,6.35,3.76a1.09,1.09,0,0,0,1.63-.51c1.27-2.13,2.52-4.28,3.8-6.4a1.8,1.8,0,0,1,.81-.71,1,1,0,0,1,1.3.67A10.9,10.9,0,0,1,53.41,11.63ZM16.21,34.36a3.59,3.59,0,1,0,3.57,3.57A3.56,3.56,0,0,0,16.21,34.36Z"/><path class="cls-1" d="M55.11,27.17c-.28.07-.55.14-.84.19-.6.11-1-.16-.91-.76.18-2.37.38-4.75.6-7.11a.85.85,0,0,1,.5-.6.84.84,0,0,1,.72.3q2,3,3.85,6c.33.52.15.91-.45,1.1l-.87.24c.08.68.18,1.34.23,2a29,29,0,1,1-55.62-9A.77.77,0,0,1,3.19,19c.67.05,1.34,0,2,0l.21,0A26.16,26.16,0,0,0,3.67,38.36,25.81,25.81,0,0,0,15.59,53.7,26.37,26.37,0,0,0,55.11,27.17Z"/><path class="cls-1" d="M25,.33V10.45h1.46v3.08H25v2.78H19.66V13.55h-6.4c.09-1.27-.18-2.46.38-3.66,1.39-3,2.69-6,4-9a.76.76,0,0,1,.83-.54C20.63.34,22.77.33,25,.33ZM19.63,4.38h-.12l-2.2,6.05h2.32Z"/><path class="cls-1" d="M.72,16.32c0-1,0-2,0-3A1,1,0,0,1,1,12.75C2.56,11,4.14,9.33,5.67,7.6,6.38,6.8,7,6,7.68,5.13A1.28,1.28,0,0,0,7.73,3.6a1.16,1.16,0,0,0-1.34-.42A.91.91,0,0,0,5.61,4c-.06.56-.1,1.12-.15,1.73H.68c0-.84-.06-1.67,0-2.49a3,3,0,0,1,1.52-2,7,7,0,0,1,2.33-1A10.77,10.77,0,0,1,9.14.28c3.87.83,5.13,4.1,2.49,7.41C10.53,9.07,9.2,10.28,8,11.56L7,12.64h5.48v3.68Z"/></g></g></svg>