<svg xmlns="http://www.w3.org/2000/svg" viewBox="0 0 57.29 60"><defs><style>.cls-1{fill:#048a44;}</style></defs><g id="Layer_2" data-name="Layer 2"><g id="Layer_1-2" data-name="Layer 1"><path class="cls-1" d="M0,60V7.65H10V4.4h7C17.86,1.71,19.44,0,22.27,0s4.32,1.73,5.13,4.34h6.88V7.55h9v1.7c0,5.22,0,10.44,0,15.67,0,.73-.32,1.62,1,1.86.31.06.48,1,.65,1.63.5,1.68,1.33,1.92,2.65.75l1.37-1.23,3.14,2c-.23.77-.44,1.45-.64,2.13-.32,1.14.26,1.89,1.39,1.81,2.45-.17,2.45-.17,3.44,2,.14.3.27.61.43,1-.58.5-1.17,1-1.74,1.48a1.27,1.27,0,0,0,.33,2.26c2.15,1.09,2.38,1.64,1.64,4a1.26,1.26,0,0,1-.75.66c-.54.16-1.14.13-1.7.25a1.24,1.24,0,0,0-.87,2c.2.33.43.64.64,1l.64,1-2.43,2.79c-.76-.35-1.47-.72-2.21-1a1.27,1.27,0,0,0-1.8,1.13c0,.8.24,1.92-.17,2.32a7,7,0,0,1-2.64,1c-.22.07-.45.11-.72.17L43.32,53.5V60ZM1.55,9.17V58.5h40.1V53.73l-1.48,2.19c-.25-.06-.39-.08-.53-.13-1-.3-2.12-.38-2.78-1-.45-.42-.11-1.61-.25-2.44s-.76-1.4-1.73-1c-.74.29-1.45.68-2.23,1l-2.42-2.84a7.69,7.69,0,0,1,.62-1c1.75-2,.89-3.18-1.46-3.19-.38,0-1-.19-1.09-.41a10.55,10.55,0,0,1-.4-3.24c0-.36,1.05-.64,1.62-.95.09-.05.18-.08.27-.12a1.28,1.28,0,0,0,.29-2.33c-.53-.48-1.09-.93-1.68-1.43.49-1.06.94-2,1.41-3,.05-.11.22-.25.32-.24.76.07,1.51.21,2.27.26a1.23,1.23,0,0,0,1.33-1.64c-.21-.77-.46-1.53-.69-2.3.6-.38,1.07-.7,1.56-1l1.59-1L37.41,29c1.54,1.4,2.26,1.15,2.87-.85a10.85,10.85,0,0,1,1-1.95l.35.16V9.19H34.39L34.21,12H10V9.11H2.44C2.16,9.11,1.88,9.15,1.55,9.17ZM51.91,50.44c1.19-.61,1-1.25.44-2a2.64,2.64,0,0,1-.67-1.6c.3-1.85,1.07-2.48,3-2.78.27,0,.54-.1.78-.15.3-1.37.3-1.37-.83-1.87-2.11-1-2.38-3.21-.62-4.8.33-.31.4-.9.59-1.36a9.73,9.73,0,0,0-1.44-.48c-.62-.09-1.43.19-1.86-.12-1.6-1.13-1.79-2-1.22-3.85.08-.26.12-.53.18-.79-.28-.19-.46-.34-.66-.46s-.33-.18-.51-.27l-.47.37c-2.25,2-4.13,1.48-5.13-1.29-.12-.34-.65-.81-.89-.77a1.94,1.94,0,0,0-1,.87c-.36.58-.44,1.49-.93,1.8-1.55,1-2.58.79-4-.49-.2-.18-.43-.34-.66-.52l-1.13.79c.07.27.13.5.2.72.3,1,.75,1.94-.29,3s-1.64,1.44-2.92,1c-1-.34-1.38.26-1.49,1.2l.62.56c2,1.72,1.72,3.9-.72,5-1,.46-.91,1-.52,1.82a5,5,0,0,1,.56.1c.95.23,2,0,2.59,1.3s.68,2.36-.31,3.48a1.19,1.19,0,0,0,0,1.17,1.43,1.43,0,0,0,1.17.21c.68-.14,1.37-.72,2-.61,1.47.25,2.33,1.64,2.44,3.27a1.5,1.5,0,0,0,.68,1.12c.33.08.85-.32,1.18-.62.48-.43.76-1.21,1.29-1.41,1.48-.55,2.74.07,3.7,1.4.25.34.79.47,1.19.7a6.68,6.68,0,0,0,.68-1.33c.17-.58,0-1.34.3-1.76a3,3,0,0,1,4-.81ZM32.75,5.81H26c-.52-2.92-1.59-4.17-3.56-4.33s-3,.94-4.13,4.38H11.69v4.63H32.75Z"/><path class="cls-1" d="M10.67,54.92H3V47.41c2.91-.85,6.2.81,9.15-1.16l1,.92C9.8,48.89,10.84,52,10.67,54.92ZM4.51,48.79v4.62H9.1V51.17L7.27,52.88,4.72,50.54l.82-1.1,1.6,1.41-.29-.43,2.33-1.63Z"/><path class="cls-1" d="M3,34.43V27c3-.83,6.27.81,9.2-1.17l1,1c-3.47,1.68-2.29,4.85-2.55,7.69Zm4.42-2.1L4.72,30l1-.86L7,30.25,9,28.39H4.49v4.54H9.12V30.72Z"/><path class="cls-1" d="M10.7,24.27H3V16.78c2.94-.88,6.25.89,9.15-1.23l.82.75c-.53,1.4-2.46,1.78-2.31,3.61C10.79,21.32,10.7,22.75,10.7,24.27Zm-3.48-2L4.76,19.76l.79-1L6.86,19.9l2.37-1.75H4.52v4.6H9.15V20.49Z"/><path class="cls-1" d="M3,37.19c3-.75,6.21.78,9.3-1.25L13.2,37c-3.51,1.69-2.28,4.88-2.56,7.69H3Zm1.48,6H9.1V41L7.23,42.7,4.65,40.28l1-1,1.21,1L9,38.57H4.5Z"/><path class="cls-1" d="M38,19.34v1.28H15.09L15,19.34Z"/><path class="cls-1" d="M26.49,51.81H15.1v-1.4H26.43Z"/><path class="cls-1" d="M15,30.64v-1.3h13.4l.08,1.3Z"/><path class="cls-1" d="M15,41.56V40.25h8.57l.07,1.31Z"/><path class="cls-1" d="M35.37,41.24a7.19,7.19,0,1,1,14.37,0,7.19,7.19,0,0,1-14.37,0Zm7.24,5.66a5.67,5.67,0,1,0-5.76-5.72A5.72,5.72,0,0,0,42.61,46.9Z"/><path class="cls-1" d="M24.44,5.42a2.25,2.25,0,0,1-2.21,2.2,2.19,2.19,0,0,1-2.18-2.21A2.23,2.23,0,0,1,22.23,3.2,2.29,2.29,0,0,1,24.44,5.42Z"/></g></g></svg>