<svg xmlns="http://www.w3.org/2000/svg" viewBox="0 0 70.82 60"><defs><style>.cls-1{fill:#048a44;}</style></defs><g id="Layer_2" data-name="Layer 2"><g id="Layer_1-2" data-name="Layer 1"><path class="cls-1" d="M17.85,18.14l.71-.57c-3.6-3.69-5.44-8.25-7-13-.06-.17-.18-.38-.14-.52a8.82,8.82,0,0,1,.45-.93c.28.18.7.3.8.55.38.91.63,1.87,1,2.79a31.65,31.65,0,0,0,4.09,8c.44.6,1,1.13,1.48,1.7a.66.66,0,0,0,1.05.14,9.78,9.78,0,0,1,1.73-.9,3.23,3.23,0,0,1,3.31.28c2.45,1.61,5,3.08,7.49,4.64.44.28.68.14,1-.12,3.5-2.71,7.3-5,11-7.34a4.49,4.49,0,0,1,5.4.15,1.05,1.05,0,0,0,1.62-.23,19.65,19.65,0,0,0,3.63-5.61C56.44,5.1,57.22,2.89,58,.7c.16-.44.36-.8.87-.68s.61.53.47,1c-1.37,4.34-3,8.55-5.93,12.11-.36.44-.76.84-1.24,1.35l.49.45a3.5,3.5,0,0,0,.37-.26l8.55-8.45L63.9,4c.35-.35.75-.69,1.2-.25s.12.89-.25,1.26q-5.17,5.1-10.33,10.2c-.22.21-.43.44-.67.69l.52.62c.19-.19.36-.33.51-.5A125.37,125.37,0,0,1,66.06,5.67c.39-.32.82-.59,1.22-.09s0,.84-.36,1.16A113.69,113.69,0,0,0,55.76,17.08a3,3,0,0,0-.36.77l.23.13c.08-.05.19-.07.25-.14a24.47,24.47,0,0,1,9.74-6.28c1.29-.5,2.62-.88,3.93-1.3.48-.16,1-.31,1.23.35s-.35.81-.85,1A30.19,30.19,0,0,0,59.2,16.63c-.85.66-1.59,1.49-2.38,2.23-.31.29-.29.56-.14,1a9.78,9.78,0,0,1,.58,2.31,1.62,1.62,0,0,1-1.08,1.64,75.91,75.91,0,0,0-10.74,6.79.62.62,0,0,0-.07.16c1.26,1.4,2.55,2.79,3.78,4.22a82.27,82.27,0,0,1,9.44,13.74,1.55,1.55,0,0,1,0,1.61,20.74,20.74,0,0,1-9.77,9.5c-.75.36-1,.26-1.4-.56a73.17,73.17,0,0,0-13-17.8c-.13-.13-.26-.24-.48-.44-.85,1-1.68,1.94-2.48,2.92A73.49,73.49,0,0,0,23.45,56c-.51,1-.68,1-1.64.54a20.82,20.82,0,0,1-9.39-9,2.13,2.13,0,0,1,0-2.3A85,85,0,0,1,21.51,32c.17-.2.31-.4.53-.68-.93-.59-1.78-1.18-2.67-1.7-1.61-.95-3.24-1.87-4.87-2.78a1.59,1.59,0,0,1-.95-1.57,7.66,7.66,0,0,1,.53-2.17,1,1,0,0,0-.18-1.24A20.6,20.6,0,0,0,6.45,16.7c-1.81-.78-3.7-1.36-5.57-2-.49-.17-1-.28-.84-.95s.68-.52,1.15-.39a31.84,31.84,0,0,1,11.35,5.38c.92.71,1.73,1.56,2.62,2.36.54-.32.17-.63-.09-.88-1.92-1.9-3.82-3.83-5.8-5.67C7.58,13,5.78,11.49,4,10c-.17-.16-.42-.29-.49-.49s-.13-.63,0-.76a1.2,1.2,0,0,1,.81-.2c.18,0,.34.22.5.36A118.38,118.38,0,0,1,16.13,19.32a3.94,3.94,0,0,0,.35.34l.46-.65c-1.17-1.18-2.32-2.37-3.49-3.54L6,8.07c-.36-.36-.69-.75-.26-1.21s.84-.13,1.2.22l10.1,10A12.12,12.12,0,0,1,17.85,18.14Zm-.65,8.57c13.41,7.72,24.09,18,31.26,31.6a1.16,1.16,0,0,0,.27,0,1.58,1.58,0,0,0,.35-.16A19.42,19.42,0,0,0,57,50.39a1.59,1.59,0,0,0,0-1.77,79.8,79.8,0,0,0-29-29.7c-.79-.48-1.59-.93-2.39-1.4C24.07,21.76,21.08,24.56,17.2,26.71Zm5.09,28.57A76.48,76.48,0,0,1,32.92,40a77.86,77.86,0,0,0-9.71-7.87c-.27.31-.48.53-.68.77A78.41,78.41,0,0,0,14.71,44c-1.49,2.54-1.51,2.54.18,5A19.47,19.47,0,0,0,22.29,55.28ZM45.2,14.4a86.16,86.16,0,0,0-10.61,7l9.74,8.13,9.17-6C49.75,21.41,46.73,18.64,45.2,14.4Zm7.51,2.33L51.65,18c-.34.39-.75.66-1.19.2s-.11-.86.26-1.18.8-.65,1.15-.93c-.5-.75-.89-.83-1.46-.49a3.43,3.43,0,0,1-1.38.47,1,1,0,0,1-.84-.43c-.21-.41.09-.72.53-.85l1-.35v-.22a18.79,18.79,0,0,0-2-.8c-.92-.27-1.33.12-.95,1a14.43,14.43,0,0,0,1.76,3.17,13.67,13.67,0,0,0,6,4.74,4.23,4.23,0,0,0,1.34.09c0-.47-.07-.94-.11-1.41,0,0-.08-.05-.12-.08-.37.22-.85.41-1.13.26-.56-.3-.24-.8,0-1.22.06-.12.17-.23.18-.34,0-.27,0-.54,0-.81h-.24c-.22.32-.44.64-.64,1s-.55.67-1,.41-.38-.71-.16-1.09.64-1,1-1.54ZM15.36,23.87l-.19.14a4.25,4.25,0,0,0-.21.56c-.23.94,0,1.25,1,1a5.29,5.29,0,0,0,1.17-.43,15.91,15.91,0,0,0,6.56-6.47,5.93,5.93,0,0,0,.51-1.54c.09-.38-.07-.67-.53-.66a5.68,5.68,0,0,0-2.7,1.05,4.56,4.56,0,0,1,1.18.41,2.88,2.88,0,0,1,.56.79c-.28.17-.58.49-.84.47a3.84,3.84,0,0,1-1.46-.5c-.58-.34-.95-.24-1.34.43.39.37.81.75,1.21,1.15s.49.78.06,1.06a1.14,1.14,0,0,1-1-.13A11.15,11.15,0,0,1,18,20c-.72.41-.7.85-.22,1.39a2.16,2.16,0,0,1,.56.92,2.78,2.78,0,0,1-.17,1,2.59,2.59,0,0,1-1-.33,4.78,4.78,0,0,1-.74-1.06l-.29,0a2.73,2.73,0,0,0,0,.76c.07.27.33.5.37.76s0,.71-.19.81-.59,0-.89-.07C15.43,24.2,15.41,24,15.36,23.87Z"/></g></g></svg>