<svg xmlns="http://www.w3.org/2000/svg" viewBox="0 0 59.98 60"><defs><style>.cls-1{fill:#048a44;}</style></defs><g id="Layer_2" data-name="Layer 2"><g id="Layer_1-2" data-name="Layer 1"><path class="cls-1" d="M17.13,10.17,23.7,3.59c.57.34,1.2.7,1.8,1.09a.74.74,0,0,0,.82,0c1.57-.68,3.14-1.34,4.73-2a.74.74,0,0,0,.55-.61A13.21,13.21,0,0,1,32.05.4.68.68,0,0,1,32.52,0C35.34,0,38.16,0,41,0c.33,0,.45.12.51.43A18.48,18.48,0,0,0,42,2.24a.86.86,0,0,0,.44.46q2.43,1,4.89,2a.88.88,0,0,0,.64,0c.66-.35,1.28-.75,1.87-1.11l6.58,6.58c-.33.55-.69,1.18-1.08,1.79a.74.74,0,0,0,0,.82c.68,1.56,1.34,3.14,2,4.73.13.31.25.49.6.55.58.11,1.13.3,1.7.41.35.07.46.21.46.57q0,4.17,0,8.34c0,.39-.13.52-.49.59a17.26,17.26,0,0,0-1.75.45.86.86,0,0,0-.46.44q-1.05,2.44-2,4.9a.88.88,0,0,0,0,.64c.35.65.76,1.28,1.11,1.86L49.8,42.85c-.55-.32-1.18-.68-1.79-1.07a.74.74,0,0,0-.82,0c-1.56.69-3.13,1.34-4.72,2-.31.13-.49.24-.56.6-.1.57-.3,1.12-.41,1.7-.07.34-.21.45-.56.45H32.6c-.39,0-.53-.12-.59-.49s-.23-1-.36-1.46a1,1,0,0,0-1.42-.81,10.76,10.76,0,0,1-7.1.39.79.79,0,0,0-.63.29q-5,5.86-10,11.76c-.47.55-.94,1.11-1.42,1.65a6.26,6.26,0,1,1-8.79-8.85Q8.87,43.26,15.52,37.6a.83.83,0,0,0,.34-1A10.29,10.29,0,0,1,16.22,30a1.08,1.08,0,0,0-.83-1.64c-.6-.15-1.42-.15-1.73-.54s-.11-1.19-.11-1.81c0-2.28,0-4.55,0-6.83,0-.38.06-.58.49-.65A11.83,11.83,0,0,0,15.78,18a.88.88,0,0,0,.46-.45q1-2.43,2-4.89a.84.84,0,0,0,0-.64C17.89,11.39,17.49,10.77,17.13,10.17ZM35.64,38.62a15.46,15.46,0,1,0-8-27.88c-4.22,3-7.49,10.2-6.19,13.55a10.81,10.81,0,0,1,9.77.24,4.15,4.15,0,0,0-.58.41c-1.82,1.81-3.64,3.61-5.43,5.44A3.11,3.11,0,0,0,25.26,35a3.14,3.14,0,0,0,4.41-.29c1.82-1.8,3.62-3.62,5.43-5.42l.47-.45A11,11,0,0,1,35.64,38.62Zm4.23,5.88c.14-.57.31-1.11.4-1.66a.83.83,0,0,1,.76-.76A13.46,13.46,0,0,0,46,40.18c1.21-.83,2.19-.89,3.26.07.23.21.43.2.67,0,1.27-1.3,2.57-2.57,3.83-3.87a.66.66,0,0,0,.06-.6c-.23-.46-.55-.89-.78-1.35a.76.76,0,0,1,0-.64,20.37,20.37,0,0,0,2.68-6.44.84.84,0,0,1,.48-.48c.61-.2,1.24-.33,1.87-.49V20.12c-.6-.15-1.17-.33-1.76-.44a.71.71,0,0,1-.64-.65,18.26,18.26,0,0,0-1.82-4.91c-.31-.57-.9-1.12-.89-1.67s.59-1.14.87-1.74a.64.64,0,0,0-.06-.59c-1.27-1.3-2.55-2.59-3.85-3.85a.65.65,0,0,0-.59-.08c-.47.23-.89.56-1.36.78a.83.83,0,0,1-.69,0,20.79,20.79,0,0,0-6.38-2.65.89.89,0,0,1-.51-.53c-.2-.59-.32-1.2-.47-1.8H33.64c-.16.62-.32,1.2-.44,1.79a.65.65,0,0,1-.57.58A18.47,18.47,0,0,0,26.31,7a.59.59,0,0,1-.76,0,11.41,11.41,0,0,0-1.35-.8.55.55,0,0,0-.5,0C22.3,7.57,20.92,9,19.5,10.36c.36.59.71,1.13,1,1.69a.76.76,0,0,1,0,.64,20.56,20.56,0,0,0-2.69,6.49.73.73,0,0,1-.45.44c-.63.21-1.27.35-1.88.5v6.21L18,27a13.1,13.1,0,0,1,1.13-1.08,1,1,0,0,0,.4-1,25.8,25.8,0,0,1,0-4A17.4,17.4,0,1,1,43.39,39.33a16.62,16.62,0,0,1-8.22,1.22,1.22,1.22,0,0,0-.84.11A16.8,16.8,0,0,0,33,42l.66,2.46ZM27.5,25.33c-.19,0-.28-.08-.37-.09l-.48-.06a8.81,8.81,0,0,0-4.11.76A8.62,8.62,0,0,0,18.1,37.19a.72.72,0,0,1-.24,1c-2.61,2.19-5.19,4.42-7.78,6.63L3.65,50.27A4.3,4.3,0,0,0,2.15,55,4.13,4.13,0,0,0,5.39,58a4.26,4.26,0,0,0,4.34-1.62q6-7.08,12.08-14.17a.77.77,0,0,1,1.05-.24,8.62,8.62,0,0,0,11.65-5.8,7.49,7.49,0,0,0,.16-3.66c-.46.47-.83.86-1.22,1.24-1,1-2,2-3,2.93A4.88,4.88,0,0,1,24.6,37a5.05,5.05,0,0,1-2.23-5.34A5.57,5.57,0,0,1,24,28.83C25.14,27.69,26.29,26.54,27.5,25.33Z"/><path class="cls-1" d="M48.33,27.07H34.85V19.39h3.83V15.51h3.85V13.59h5.8ZM44.54,15.52v9.62H46.4V15.52Zm-2,9.62V17.47H40.66v7.67Zm-3.87,0v-3.8H36.79v3.8Z"/><path class="cls-1" d="M25.7,19.65l-1.84-.6a13.72,13.72,0,0,1,8.72-8.72l.6,1.84A12,12,0,0,0,28.56,15,12.12,12.12,0,0,0,25.7,19.65Z"/><path class="cls-1" d="M47.58,31.41l-1.35,1.53-1.35-1.38L46,30.24Z"/><path class="cls-1" d="M34.68,9.82l2-.16v1.92L35,11.74Z"/><path class="cls-1" d="M38.85,36.63l-.3-1.9,1.73-.41.59,1.84Z"/><path class="cls-1" d="M44.57,34.27a5.8,5.8,0,0,1-.52.37c-.39.24-.79.47-1.24.73L42,33.65l1.52-.92Z"/><path class="cls-1" d="M6.77,50.33a2.9,2.9,0,1,1-2.9,2.86A2.9,2.9,0,0,1,6.77,50.33Zm0,1.93a1,1,0,0,0,0,1.93,1,1,0,0,0,0-1.93Z"/><path class="cls-1" d="M10.07,48.6l1.3-1.2,1.22,1.25-1.33,1.28Z"/><path class="cls-1" d="M12.84,45.92l1.26-1.28L15.35,46,14,47.1Z"/><path class="cls-1" d="M15.52,43.16,16.75,42,18,43.35l-1.2,1Z"/></g></g></svg>