<svg xmlns="http://www.w3.org/2000/svg" viewBox="0 0 59.91 60"><defs><style>.cls-1{fill:#048a44;}</style></defs><g id="Layer_2" data-name="Layer 2"><g id="Layer_1-2" data-name="Layer 1"><path class="cls-1" d="M15.18,47.48c-.89,2-1.77,4-2.62,5.93a.91.91,0,0,0,.08.64q1,2.19,2.15,4.35c.22.45.35.89,0,1.3a1,1,0,0,1-1.34.11q-4-1.76-7.92-3.48c-.48-.21-.87-.47-.82-1.07s.44-.76.93-.9c1.56-.43,3.11-.88,4.66-1.34a.89.89,0,0,0,.54-.37c.89-1.94,1.75-3.91,2.62-5.89-.12-.09-.22-.18-.33-.25a6.84,6.84,0,0,1-2.49-8.7q2.58-5.82,5.2-11.63c.36-.81.76-1,1.57-.62.38.15.75.32,1.13.48a1.15,1.15,0,0,0,.2,0c0-1,0-2.08,0-3.12,0-.13-.16-.29-.29-.39-.65-.49-1.33-1-2-1.45a.95.95,0,1,1,1.11-1.51L20,21.39a1.19,1.19,0,0,1,.55,1.09c0,1.32,0,2.65,0,4a.65.65,0,0,0,.49.73c2.39,1,4.78,2.1,7.17,3.15.78.34.94.78.55,1.66l-4.71,10.5a18.53,18.53,0,0,1-.85,1.8,6.89,6.89,0,0,1-7.71,3.28Zm.23-15.75c-.1.21-.17.34-.24.48l-2.85,6.35a5,5,0,0,0,2.59,6.79,5,5,0,0,0,7-2.53c.62-1.37,1.23-2.73,1.84-4.1.44-1,.87-2,1.32-3l-2.2-.91-2.24-.94c0,1.36,0,2.61,0,3.85,0,.77-.36,1.22-1,1.21s-.91-.45-.91-1.19c0-1.4,0-2.81,0-4.21,0-.18-.09-.46-.23-.52C17.48,32.58,16.47,32.17,15.41,31.73ZM25.81,34l1-2.27L20.59,29c0,.94,0,1.73,0,2.53a.51.51,0,0,0,.24.39C22.46,32.64,24.1,33.31,25.81,34Zm-7.1-3c0-1,0-1.79,0-2.62a.41.41,0,0,0-.17-.32c-.41-.21-.83-.38-1.28-.58L16.16,30ZM8.56,55.48l0,.13,3.35,1.47a11.55,11.55,0,0,0-.9-2,.49.49,0,0,0-.42-.12C9.89,55.08,9.23,55.29,8.56,55.48Z"/><path class="cls-1" d="M41.19,26.11l1.46-.62A.93.93,0,0,1,44,26c1.83,4.09,3.72,8.16,5.47,12.28A6.75,6.75,0,0,1,47,46.4l-.47.31c0,.13.07.25.12.37.8,1.82,1.6,3.64,2.43,5.45a1,1,0,0,0,.57.48c1.57.48,3.14.92,4.72,1.36.49.14.87.37.9.93a1,1,0,0,1-.75,1l-8.08,3.55a1,1,0,0,1-1.24-.14,1,1,0,0,1-.08-1.24c.73-1.46,1.46-2.93,2.17-4.4a.91.91,0,0,0,.07-.7c-.81-1.9-1.66-3.78-2.5-5.67a2.51,2.51,0,0,0-.14-.21,7,7,0,0,1-3.86,0,6.61,6.61,0,0,1-4.38-3.68c-1.82-4-3.6-8-5.39-12a1,1,0,0,1,.61-1.49c2.41-1.06,4.8-2.14,7.22-3.18a.66.66,0,0,0,.45-.75c0-1.29,0-2.57,0-3.86a1.32,1.32,0,0,1,.61-1.23c.82-.56,1.62-1.16,2.42-1.74.57-.41,1.1-.38,1.45.07s.25,1-.34,1.44-1.3.93-1.94,1.42a.74.74,0,0,0-.31.44C41.18,24,41.19,25,41.19,26.11Zm3.33,5.61c-1,.41-1.93.82-2.87,1.18a.66.66,0,0,0-.48.74c0,1.42,0,2.84,0,4.27a.94.94,0,1,1-1.86,0c0-1.3,0-2.6,0-4l-4.48,1.86c1.21,2.65,2.28,5.32,3.63,7.83,1.26,2.32,4.16,2.93,6.73,1.67a4.91,4.91,0,0,0,2.56-6.19C46.76,36.61,45.62,34.21,44.52,31.72ZM39.33,29l-6.26,2.75,1,2.27c1.71-.72,3.35-1.39,5-2.09a.52.52,0,0,0,.26-.38C39.34,30.75,39.33,29.94,39.33,29Zm3.31-1.46c-.44.2-.83.36-1.21.55-.1,0-.23.18-.23.28,0,.87,0,1.73,0,2.69L43.73,30Zm8.69,28.06v-.13c-.67-.2-1.34-.4-2-.58a.47.47,0,0,0-.39.1c-.35.66-.67,1.33-1,2l.11.08Z"/><path class="cls-1" d="M26.42,55.16c.11-.61.26-1.34.33-2.07a1.21,1.21,0,0,0-.25-.82c-.41-.49-.93-.89-1.31-1.4a1,1,0,0,1,.56-1.68c.6-.17,1.24-.18,1.84-.32a1,1,0,0,0,.59-.44c.32-.57.58-1.19.86-1.79.18-.4.48-.75.92-.64a1.61,1.61,0,0,1,.88.63c.36.58.58,1.24.9,1.84a.9.9,0,0,0,.55.4c.63.14,1.29.15,1.9.33a1.34,1.34,0,0,1,.83.67,1.25,1.25,0,0,1-.28,1,12.44,12.44,0,0,1-1.33,1.39.85.85,0,0,0-.27.88c.12.61.21,1.23.31,1.84a1,1,0,0,1-.38,1.15,1,1,0,0,1-1.15-.06c-.67-.36-1.34-1-2-1s-1.3.64-1.95,1A1,1,0,0,1,26.42,55.16Zm2.22-1.69a2,2,0,0,1,2.63,0,2.19,2.19,0,0,1,.89-2.71A2,2,0,0,1,30,49.19a2,2,0,0,1-2.21,1.6A2.18,2.18,0,0,1,28.64,53.47Z"/><path class="cls-1" d="M33.48,12.55c0,.88-.66,1.35-1.35,1a18.25,18.25,0,0,1-1.74-1,.71.71,0,0,0-.85,0,10,10,0,0,1-1.64.89,1.32,1.32,0,0,1-1.07,0,1.21,1.21,0,0,1-.37-.94c0-.68.24-1.35.29-2a1.21,1.21,0,0,0-.25-.82c-.42-.5-.92-.94-1.37-1.43a.93.93,0,0,1,.56-1.65c.63-.12,1.28-.17,1.9-.31a1,1,0,0,0,.59-.44c.32-.58.58-1.19.86-1.79.18-.41.48-.75.93-.65a1.59,1.59,0,0,1,.87.64c.36.57.57,1.23.9,1.83a.93.93,0,0,0,.55.4c.63.14,1.29.15,1.9.33a1.38,1.38,0,0,1,.83.67,1.24,1.24,0,0,1-.28,1,11,11,0,0,1-1.29,1.35.9.9,0,0,0-.3,1C33.28,11.28,33.38,12,33.48,12.55ZM27.75,8.21a2.15,2.15,0,0,1,.88,2.69,2,2,0,0,1,2.63,0,2.2,2.2,0,0,1,.9-2.71,2.06,2.06,0,0,1-2.22-1.62A2,2,0,0,1,27.75,8.21Z"/><path class="cls-1" d="M52.75,30.78A10,10,0,0,0,53,29.42a1.39,1.39,0,0,0-.25-.81c-.27-.36-.63-.64-.93-1a.93.93,0,0,1,.5-1.61h.06a2.29,2.29,0,0,0,2.5-1.89,1.08,1.08,0,0,1,.83-.57,1.14,1.14,0,0,1,.88.59,2.46,2.46,0,0,0,2.52,1.91c.86,0,1.1.95.52,1.61a3.43,3.43,0,0,1-.33.33,1.82,1.82,0,0,0-.71,2.33.64.64,0,0,1,.06.4c-.09.35-.14.83-.39,1a1.55,1.55,0,0,1-1.07,0,3.13,3.13,0,0,1-.91-.5.85.85,0,0,0-1.11,0,7.7,7.7,0,0,1-1,.54C53.39,32.16,52.71,31.7,52.75,30.78Zm4-3.1-1.08-.75-1.1.74L55.09,29h1.19Z"/><path class="cls-1" d="M1.27,30.85c.06-.38.11-.84.21-1.3a.94.94,0,0,0-.31-1,7.08,7.08,0,0,1-.86-.87A.93.93,0,0,1,.85,26a2.74,2.74,0,0,1,.69-.1A1.4,1.4,0,0,0,3,24.75,3.57,3.57,0,0,1,3.39,24,.92.92,0,0,1,5,24c.24.42.39.9.65,1.31a1.19,1.19,0,0,0,.63.47c.43.13.89.13,1.32.23a.92.92,0,0,1,.51,1.58,2,2,0,0,1-.41.41,1.78,1.78,0,0,0-.68,2.23,2.7,2.7,0,0,1,.1.58c.06.87-.71,1.44-1.41.93a2.32,2.32,0,0,0-3.08,0C2,32.24,1.26,31.72,1.27,30.85ZM4.82,29l.48-1.34-1.06-.76-1.11.73L3.61,29Z"/><path class="cls-1" d="M2.83.11A2.81,2.81,0,1,1,0,2.86,2.8,2.8,0,0,1,2.83.11ZM2.78,3.84a1,1,0,0,0,1-.9,1,1,0,0,0-.9-1,1,1,0,0,0-1,.9A1,1,0,0,0,2.78,3.84Z"/><path class="cls-1" d="M57.06,5.72A2.81,2.81,0,1,1,59.9,3,2.8,2.8,0,0,1,57.06,5.72Zm1-2.8a.93.93,0,1,0-1.86,0,.93.93,0,0,0,1.86,0Z"/><path class="cls-1" d="M14.67,14.22a4.1,4.1,0,0,1-.78.78.83.83,0,0,1-1.05-.27l-2.15-2.46L6.49,7.48a2.88,2.88,0,0,1-.22-.27A.92.92,0,0,1,6.42,6,.9.9,0,0,1,7.69,6c.41.42.78.87,1.16,1.31,1.74,2,3.47,3.95,5.19,5.94A8.92,8.92,0,0,1,14.67,14.22Z"/><path class="cls-1" d="M54,6.59a5.13,5.13,0,0,1-.47.8Q50.33,11,47.14,14.65a1,1,0,0,1-1.44.18.94.94,0,0,1,0-1.4q3.18-3.66,6.38-7.3a.86.86,0,0,1,1.13-.31C53.52,6,53.7,6.32,54,6.59Z"/><path class="cls-1" d="M3.68,43.49c.11-.49.17-1,.32-1.48a.93.93,0,1,1,1.77.57A2.66,2.66,0,0,0,7.23,46c.56.28.86.72.68,1.24a1,1,0,0,1-1.3.56,4.38,4.38,0,0,1-2.86-4V43.5Z"/><path class="cls-1" d="M56.2,43.38a4.73,4.73,0,0,1-2.33,4.16,3,3,0,0,1-.82.28A.91.91,0,0,1,52,47.13.89.89,0,0,1,52.55,46a2.7,2.7,0,0,0,1.6-3.42,1,1,0,0,1,.56-1.28.93.93,0,0,1,1.22.75A13.11,13.11,0,0,1,56.2,43.38Z"/><path class="cls-1" d="M44.93,8.6c0,.08,0,.23-.09.38-.28,1.13-.55,2.27-.84,3.39a1,1,0,0,1-1.15.82,1,1,0,0,1-.66-1.29c.29-1.18.58-2.37.89-3.56a.89.89,0,0,1,1-.73A.94.94,0,0,1,44.93,8.6Z"/><path class="cls-1" d="M16,7.6a.88.88,0,0,1,.8.7c.32,1.24.64,2.49.93,3.73a.93.93,0,1,1-1.79.49q-.53-1.9-1-3.84A.92.92,0,0,1,16,7.6Z"/><path class="cls-1" d="M48.67,17.89a.89.89,0,0,1-.89-.69.82.82,0,0,1,.43-1c1.15-.53,2.31-1,3.48-1.49a.84.84,0,0,1,1.11.5.8.8,0,0,1-.32,1.12c-1.18.57-2.41,1.06-3.63,1.58A.9.9,0,0,1,48.67,17.89Z"/><path class="cls-1" d="M12.17,16.78c0,.82-.62,1.29-1.23,1-1.16-.45-2.3-.95-3.42-1.47a.85.85,0,0,1-.43-1.14.87.87,0,0,1,1.13-.55q1.77.69,3.48,1.5C12,16.29,12.08,16.65,12.17,16.78Z"/><path class="cls-1" d="M30.89,23.75c0,.43,0,.86,0,1.29a.92.92,0,0,1-.95.9.9.9,0,0,1-.9-.89c0-.84,0-1.68,0-2.51a.93.93,0,0,1,1.85,0C30.91,22.93,30.89,23.34,30.89,23.75Z"/><path class="cls-1" d="M28.08,25.57c-.11.14-.27.52-.54.61a1.21,1.21,0,0,1-1-.14,4.55,4.55,0,0,1-1.1-1.33,1.11,1.11,0,0,1,.06-1,1.18,1.18,0,0,1,.9-.34C26.9,23.39,28.08,24.87,28.08,25.57Z"/><path class="cls-1" d="M32.85,26.31A.92.92,0,0,1,32,24.94a8.87,8.87,0,0,1,1.14-1.39.84.84,0,0,1,1.13-.06.77.77,0,0,1,.33,1.06,11.89,11.89,0,0,1-1.32,1.61C33.14,26.27,32.93,26.28,32.85,26.31Z"/><path class="cls-1" d="M59.3,14.09a1.14,1.14,0,0,0-1.61,0,1.36,1.36,0,0,0-.54-1.65,1.26,1.26,0,0,0,1.33-1,1.29,1.29,0,0,0,1.37,1A1.42,1.42,0,0,0,59.3,14.09Z"/><path class="cls-1" d="M2.33,14.07c-1-.32-1-.32-1.77,0a1.29,1.29,0,0,0-.49-1.63,1.27,1.27,0,0,0,1.31-1,1.31,1.31,0,0,0,1.38,1C2.23,12.88,1.94,13.37,2.33,14.07Z"/><path class="cls-1" d="M44.54.86A1.23,1.23,0,0,0,46.06,0c.14.8.38,1.29,1.13,1.38A1.32,1.32,0,0,0,46.42,3c-.56-.59-1-.82-1.69-.45A1.39,1.39,0,0,0,44.54.86Z"/><path class="cls-1" d="M13.53,3c0-.78-.08-1.33-.84-1.53.66-.2,1.1-.52,1.13-1.27a1.27,1.27,0,0,0,1.54.66,1.3,1.3,0,0,0-.13,1.67A1.31,1.31,0,0,0,13.53,3Z"/><path class="cls-1" d="M15.91,4.81a.93.93,0,1,1-.89-1A.93.93,0,0,1,15.91,4.81Z"/><path class="cls-1" d="M45.86,4.78a.92.92,0,0,1-.91.94.94.94,0,1,1,.91-.94Z"/><path class="cls-1" d="M55.22,15.08a.94.94,0,1,1,.94-.91A.93.93,0,0,1,55.22,15.08Z"/><path class="cls-1" d="M4.65,13.21a.94.94,0,1,1-.9.95A.93.93,0,0,1,4.65,13.21Z"/></g></g></svg>