<svg xmlns="http://www.w3.org/2000/svg" viewBox="0 0 63.62 60"><defs><style>.cls-1{fill:#048a44;}</style></defs><g id="Layer_2" data-name="Layer 2"><g id="Layer_1-2" data-name="Layer 1"><path class="cls-1" d="M31.9,52.5H61.76c2,0,2.09.18,1.64,2.14a6.85,6.85,0,0,1-5.84,5.26,16.19,16.19,0,0,1-1.84.09H7.9C3.74,60,1.07,58.1.23,54.64-.25,52.7-.1,52.5,1.87,52.5ZM21,56.35c-.93-.71-1.49-1.47-2-1.45s-1.05.8-1.57,1.25c.48.55.89,1.42,1.47,1.55S20,57,21,56.35ZM10,54.17c-.63,1-1.33,1.63-1.25,2.15s.88,1,1.38,1.48c.5-.54,1.3-1,1.41-1.66C11.56,55.7,10.71,55.1,10,54.17Zm4.38,4.24c.75-.93,1.6-1.53,1.53-2S15,55.33,14.44,54.8c-.49.49-1.3.93-1.37,1.47S13.7,57.42,14.33,58.41Z"/><path class="cls-1" d="M51.49,21.41l.24-3.67a28.44,28.44,0,0,1,5.44.63,4.23,4.23,0,0,1,3,4.26c0,9.4,0,18.79,0,28.18a2.92,2.92,0,0,1-.13.57H3.46v-2c0-8.27.12-16.55,0-24.82-.08-4.06,1.67-7.19,6.76-6.72.6.05,1.22,0,1.84,0l.23,3.55c-1.1,0-2.21,0-3.31,0S7,22,7,23.24V46.55c0,.39,0,.78.07,1.29H56.66V24.16c0-2.5-.25-2.74-2.82-2.75Z"/><path class="cls-1" d="M31.84,0c1.17,1.05,2,1.82,2.88,2.58.45.41.84,1,1.37,1.18a16.37,16.37,0,0,1,11.39,11.3,3,3,0,0,0,1.27,1.48c1.17.68,2.1,1.62,1.81,2.92a8.87,8.87,0,0,1-1.77,2.79c-.38.52-1.1.91-1.28,1.48A16.29,16.29,0,0,1,36,35.11a2.3,2.3,0,0,0-1.22,1.1,3.17,3.17,0,0,1-3,2,3.22,3.22,0,0,1-2.87-2,2.54,2.54,0,0,0-1.36-1.16,16.32,16.32,0,0,1-11.3-11.18c-.21-.63-.92-1.08-1.33-1.65a9,9,0,0,1-1.78-2.78c-.29-1.3.64-2.24,1.81-2.92a2.93,2.93,0,0,0,1.26-1.48,16.42,16.42,0,0,1,11.4-11.3C28.12,3.6,28.5,3,29,2.58ZM35,34.32A15.31,15.31,0,0,0,46.31,24c.32-.91.44-1.53-.61-2.21a2.77,2.77,0,0,1-.32-4.48c1.54-1.08,1.21-2.12.61-3.36a22.43,22.43,0,0,0-1.63-3.11A14.74,14.74,0,0,0,35,4.58c-2.1,3-4.07,3-6.31.1-5.3.86-10.37,5.56-11.46,10.72a1.65,1.65,0,0,0,.5,1.32c2,1.69,2,3.71,0,5.37a1.67,1.67,0,0,0-.56,1.3c1,5.13,6.38,10.12,11.56,10.77C30.74,31.29,32.94,31.29,35,34.32Z"/><path class="cls-1" d="M17.32,45.67H10.16v-.51h7.16Z"/><path class="cls-1" d="M53.57,45.68H46.08C47.45,44.69,52.38,44.65,53.57,45.68Z"/><path class="cls-1" d="M17.34,38.9c-.64,1-6.06,1.15-7.48,0Z"/><path class="cls-1" d="M53.61,38.83c-.66,1.18-6.39,1.23-7.31,0Z"/><path class="cls-1" d="M17.33,42.21c-2,.86-6.51.65-7.37-.33C12.57,41.71,15,41.51,17.33,42.21Z"/><path class="cls-1" d="M53.68,42c-.76.87-5.24,1.08-7.25.47C46.94,41.65,50.89,41.37,53.68,42Z"/><path class="cls-1" d="M38.14,27.64c-.55-.36-1-.66-1.48-.94a1.58,1.58,0,0,0-2.5,1.05,2.29,2.29,0,0,1-3.31,1.69,1.41,1.41,0,0,1-.67-.83c-.86-2.57-1.26-2.73-3.52-1.32a8.36,8.36,0,0,0-1.07.74,18.09,18.09,0,0,1-1.38-2.1,1.82,1.82,0,0,1-.12-1.42c1.16-2.3,1-2.75-1.43-3.4a7.93,7.93,0,0,1-.88-.35c0-.71,0-1.44,0-2.15-.07-.9.3-1.25,1.19-1.44,2.08-.45,2.42-1.29,1.19-3.11-.76-1.12,0-1.61.59-2.23s1.08-1.39,2.22-.63c1.9,1.27,2.67,1,3.13-1.31.23-1.15.92-1.1,1.7-1s1.88-.48,2.24,1c.56,2.28,1.2,2.51,3.32,1.28,1.32-.77,1.62.48,2.3,1s1,.91.44,1.8C38.77,16,39,16.66,41.37,17.19c1.26.27,1,1.11,1,1.91s.22,1.74-1.09,2c-2.23.5-2.43,1.21-1.37,3.18A2,2,0,0,1,39.82,26,10.17,10.17,0,0,1,38.14,27.64ZM27.51,19a4.57,4.57,0,0,0,4.28,4.71,4.49,4.49,0,0,0,4.83-4.28,4.54,4.54,0,0,0-4.31-4.84A4.7,4.7,0,0,0,27.51,19Z"/></g></g></svg>