<svg xmlns="http://www.w3.org/2000/svg" viewBox="0 0 59.17 60"><defs><style>.cls-1{fill:#048a44;}</style></defs><g id="Layer_2" data-name="Layer 2"><g id="Layer_1-2" data-name="Layer 1"><path class="cls-1" d="M33.36,34.76l3.26,5.6c-.75.62-1.47,1.2-2.18,1.8-1.09.92-1,1.5.32,2.15l2.51,1.18-1.7,6.41c-.89-.08-1.75-.19-2.62-.23-1.72-.09-2,.28-1.42,1.86L32.41,56l-5.73,3.33c-.66-.78-1.3-1.57-2-2.33s-1.39-.76-1.9.26S22,59,21.55,60l-6.36-1.69c.06-1,.12-2,.18-3s-.47-1.54-1.51-1.2S12,54.76,11,55.13c-1.13-2-2.21-3.81-3.33-5.76.83-.68,1.6-1.28,2.34-1.93s.71-1.43-.28-1.92c-.84-.42-1.7-.78-2.72-1.25l1.7-6.39c1.08.07,2,.15,3,.19s1.5-.46,1.15-1.5-.65-1.84-1-2.83l5.71-3.32c.63.74,1.24,1.49,1.88,2.21.9,1,1.47.92,2.06-.3.41-.84.8-1.68,1.23-2.58l6.41,1.71c-.1,1-.23,2-.27,3-.05,1.21.49,1.58,1.64,1.19.83-.28,1.66-.59,2.5-.89A1.92,1.92,0,0,1,33.36,34.76Zm-9.52-3c-1,1.23-.87,3.05-3.08,3.3s-2.34-1.78-3.65-2.4l-3,1.78c.1,1.54,1.53,2.66.16,4.44s-2.93.31-4.31,1l-.85,3.25c1.12,1.06,3,.79,3.27,3s-1.72,2.37-2.4,3.69L11.79,53c.8-.28,1.48-.56,2.18-.76.39-.11,1-.29,1.22-.11,1.11.84,2.64,1.47,1.91,3.43-.2.53-.43,1.41.62,1.66l2.76.69c1-1.11.77-2.9,2.92-3.22s2.46,1.57,3.76,2.38l3-1.75c0-1.58-1.49-2.66-.18-4.4s2.87-.57,4.34-1.06l.88-3.26c-1.09-1.1-2.92-.82-3.25-3s1.79-2.34,2.33-3.77L32.6,36.87c-1.54-.08-2.6,1.55-4.36.21s-.73-2.83-1-4.33Z"/><path class="cls-1" d="M47.21,58.93H45.59v-22h-5c3.2-4.49,6.21-8.73,9.33-13.1l9.29,13H54.05V48.32H52.38V35.17h3.5l-6-8.42c-2,2.8-3.9,5.47-6,8.33h3.27Z"/><path class="cls-1" d="M55.15,10.38H51.22V22.19H49.53V8.75l2.21-.14L47.77,3l-4,5.6L46,8.74v8H44.46V10.48H40.29L47.76,0Z"/><path class="cls-1" d="M32,25.57H30.4V20.62H25.75L33.92,9.15,42,20.53H37.7V31.66H36.06V18.91l2.61-.13-4.73-6.65-4.76,6.62,2.79.18Z"/><path class="cls-1" d="M1.64,46,0,46.06A21.82,21.82,0,0,1,6,29.73a22.11,22.11,0,0,1,15.85-7.07c-.42-.47-.65-.78-.93-1s-.64-.47-1.08-.79l1.26-1.24,3.9,4-3.89,3.73-1.05-1,1.81-2A20.58,20.58,0,0,0,7.14,31C3.24,35.18,1.62,40.24,1.64,46Z"/><path class="cls-1" d="M46.11,18.71v1.74H44.5V18.79Z"/><path class="cls-1" d="M53.92,57.38v1.54H52.38l-.1-1.54Z"/><path class="cls-1" d="M32.08,29.11H30.44l-.09-1.53L32,27.47Z"/><path class="cls-1" d="M52.29,50.26h1.63v1.59L52.38,52Z"/><path class="cls-1" d="M52.38,55.47V53.81l1.51-.09L54,55.39Z"/><path class="cls-1" d="M36.05,33.65h1.5v1.58h-1.5Z"/><path class="cls-1" d="M28.61,44.9a6.46,6.46,0,1,1-6.51-6.51A6.52,6.52,0,0,1,28.61,44.9Zm-1.76-.09a4.74,4.74,0,0,0-4.72-4.69,4.89,4.89,0,0,0-4.74,4.74,4.79,4.79,0,0,0,4.86,4.73A4.69,4.69,0,0,0,26.85,44.81Z"/></g></g></svg>