<svg xmlns="http://www.w3.org/2000/svg" viewBox="0 0 61.04 60"><defs><style>.cls-1{fill:#048a44;}</style></defs><g id="Layer_2" data-name="Layer 2"><g id="Layer_1-2" data-name="Layer 1"><path class="cls-1" d="M0,28.39V15.93A9,9,0,0,1,6.71,7.14,8.5,8.5,0,0,1,8.9,6.85H14a.3.3,0,0,0,.36-.26A9,9,0,0,1,21.91.07,7.69,7.69,0,0,1,22.86,0c3.81,0,7.62,0,11.43,0a8.62,8.62,0,0,1,6.12,2.57A8.8,8.8,0,0,1,43,7.44a7.58,7.58,0,0,1,.13,1.42c0,1.85,0,3.69,0,5.54a.43.43,0,0,0,.34.49A14.94,14.94,0,0,1,52,22.77,14.5,14.5,0,0,1,53.41,30a14.94,14.94,0,0,1-4.2,9.6.31.31,0,0,0,0,.48c.55.76,1.08,1.53,1.63,2.3a.71.71,0,0,0,.33.23A3.55,3.55,0,0,1,53.2,44l4.93,7c.73,1,1.47,2.08,2.2,3.13A3.66,3.66,0,0,1,59.88,59,3.55,3.55,0,0,1,57,60a3.74,3.74,0,0,1-2.75-1.7C52,55,49.67,51.76,47.37,48.5a3.8,3.8,0,0,1-.76-2.78.34.34,0,0,0-.08-.23c-.56-.82-1.14-1.63-1.71-2.45a.22.22,0,0,0-.33-.09,14,14,0,0,1-4,1.17c-.75.1-1.52.12-2.28.16a.35.35,0,0,0-.37.24,9.37,9.37,0,0,1-3.25,3.91,8.4,8.4,0,0,1-4.39,1.51c-1.25.05-2.5,0-3.75,0H14.07c-1.7,0-3.39,0-5.08,0a8.73,8.73,0,0,1-6.06-2.38A8.77,8.77,0,0,1,0,40.92ZM33.45,43.51a15.05,15.05,0,0,1-7.81-6,14.31,14.31,0,0,1-2.45-9.55c.7-6.77,4.48-11.12,10.82-13.42a1.89,1.89,0,0,0-.06-.21,4.7,4.7,0,0,0-4.34-3.12H8.94a4,4,0,0,0-1.78.39A4.6,4.6,0,0,0,4.35,16c0,4.67,0,9.35,0,14,0,3.65,0,7.31,0,11A4.66,4.66,0,0,0,9,45.62H29.48a4.53,4.53,0,0,0,.82-.06A4.68,4.68,0,0,0,33.45,43.51Zm2.78.65c-.4-.08-.75-.15-1.11-.2a.26.26,0,0,0-.2.11c-.13.2-.23.41-.37.6a6.19,6.19,0,0,1-5.09,2.53H9.83a13,13,0,0,1-1.53-.05A6.22,6.22,0,0,1,2.78,41V32.87q0-8.46,0-16.91A7.54,7.54,0,0,1,3,14.39,6.18,6.18,0,0,1,8.86,9.63c7,0,13.9,0,20.86,0a4,4,0,0,1,.6.05,6.14,6.14,0,0,1,5.16,4.25c0,.1.06.2.09.29L36.74,14V14A7.5,7.5,0,0,0,29.6,8.41H9.12a8.6,8.6,0,0,0-1.82.2,7.42,7.42,0,0,0-5.72,7c0,3.13,0,6.26,0,9.38V40.88a7.13,7.13,0,0,0,.56,2.89,7.28,7.28,0,0,0,6,4.56,19.13,19.13,0,0,0,2.51.06h18.8a7.18,7.18,0,0,0,1.67-.18A7.39,7.39,0,0,0,36.23,44.16Zm2.05-1.45A13.58,13.58,0,1,0,24.71,29.3,13.55,13.55,0,0,0,38.28,42.71ZM59.46,56.23A2.06,2.06,0,0,0,59,55L57.2,52.46Q54.59,48.71,52,45a1.87,1.87,0,0,0-1.1-.78.36.36,0,0,0-.29,0c-.76.51-1.51,1-2.25,1.57a.57.57,0,0,0-.16.33,2.12,2.12,0,0,0,.42,1.34c.76,1.07,1.52,2.15,2.27,3.23,1.61,2.28,3.2,4.57,4.81,6.85a2.09,2.09,0,0,0,2.37.77A2.12,2.12,0,0,0,59.46,56.23ZM18.87,6.85h9.86A12.92,12.92,0,0,1,30.89,7a8.86,8.86,0,0,1,7.34,6.5c.05.18.11.35.16.51h.38v-.29c0-1.11,0-2.22,0-3.33a16.86,16.86,0,0,0-.05-1.88,4.63,4.63,0,0,0-4.6-4.12c-3.69,0-7.39,0-11.09,0A4.64,4.64,0,0,0,18.87,6.85ZM16,6.85c.33,0,.62,0,.9,0a.39.39,0,0,0,.44-.28,6.06,6.06,0,0,1,5.78-3.78c2.75,0,5.5,0,8.26,0a33.87,33.87,0,0,1,3.49.06,6,6,0,0,1,4.81,3.29,6.06,6.06,0,0,1,.71,3v4.81c0,.08,0,.23.1.24l1.1.19V14c0-1.62,0-3.24,0-4.86a11.38,11.38,0,0,0-.1-1.3,7.45,7.45,0,0,0-7.22-6.28c-3.7,0-7.4,0-11.1,0A7.27,7.27,0,0,0,16.8,5,6.59,6.59,0,0,0,16,6.85ZM47.86,40.94l-1.75,1.2,1.55,2.2,1.73-1.21Z"/><path class="cls-1" d="M15.69,17.2H8.92a.79.79,0,1,1,0-1.57H22.47a.79.79,0,0,1,.87.79.81.81,0,0,1-.89.79H15.69Z"/><path class="cls-1" d="M15.71,38.81h6.77a.78.78,0,0,1,.86.78.79.79,0,0,1-.85.78q-6.79,0-13.59,0a.78.78,0,0,1-.83-.62.76.76,0,0,1,.5-.9,1,1,0,0,1,.3,0Z"/><path class="cls-1" d="M13.48,23.61H8.93a.8.8,0,1,1,0-1.59h9a.84.84,0,0,1,.9.5.8.8,0,0,1-.81,1.09h-4.6Z"/><path class="cls-1" d="M13.51,33.21c1.51,0,3,0,4.55,0a.8.8,0,0,1,.8,1.15.84.84,0,0,1-.8.43H8.88a.78.78,0,0,1-.78-.52.72.72,0,0,1,.25-.87,1.17,1.17,0,0,1,.6-.18Z"/><path class="cls-1" d="M13.52,27.63h4.62a.75.75,0,0,1,.78.58.76.76,0,0,1-.38.88,1.12,1.12,0,0,1-.48.1H8.89a.79.79,0,0,1-.81-1,.78.78,0,0,1,.79-.54h4.65Z"/><path class="cls-1" d="M25.75,29.14a12.53,12.53,0,1,1,12.5,12.51A12.52,12.52,0,0,1,25.75,29.14Zm23.49,0a11,11,0,1,0-11,11A11,11,0,0,0,49.24,29.11Z"/><path class="cls-1" d="M36.45,30.88l1.31-1.47c1.74-1.95,3.47-3.92,5.22-5.86a2.46,2.46,0,0,1,2.8-.68,2.64,2.64,0,0,1,1,4.25l-2.24,2.49L39,35.94a3.16,3.16,0,0,1-1.39,1,2.53,2.53,0,0,1-2.44-.43c-1.7-1.34-3.38-2.7-5.07-4a2.62,2.62,0,0,1,1-4.61,2.53,2.53,0,0,1,2.33.54l2.87,2.3Zm.19,2.17-.29-.22-2-1.64-2-1.57a1,1,0,0,0-1.63.37,1,1,0,0,0,.36,1.29c1.63,1.3,3.27,2.59,4.88,3.92a1.14,1.14,0,0,0,1.7-.15c1.84-2.09,3.71-4.16,5.56-6.25l2.39-2.71a1,1,0,1,0-1.55-1.4l-5.21,5.87Z"/></g></g></svg>