<svg xmlns="http://www.w3.org/2000/svg" viewBox="0 0 58.44 60"><defs><style>.cls-1{fill:#048a44;}</style></defs><g id="Layer_2" data-name="Layer 2"><g id="Layer_1-2" data-name="Layer 1"><path class="cls-1" d="M21.37,43.14C24,44.4,27,44.64,29.21,46.82c1.93-2,4.66-2.34,7-3.38a1.21,1.21,0,0,1,1,.45c1.33,2.35,2.63,4.73,3.88,7.14a1.29,1.29,0,0,0,1.32.87,1.32,1.32,0,0,0,1.35-.82c1.35-2.61,2.76-5.18,4.32-8.06,2.33,1,4.69,2,6.89,3.19a4.76,4.76,0,0,1,2.22,3.67c.44,3.33.77,6.68,1.16,10.12H0c.1-1.6.17-3.14.31-4.67s.35-2.77.48-4.16a6.9,6.9,0,0,1,5.15-6.44,34.16,34.16,0,0,0,3.37-1.26A.92.92,0,0,1,10.7,44c1.19,2.26,2.4,4.51,3.6,6.77.31.57.54,1.14,1.4,1.16a1.46,1.46,0,0,0,1.48-1C18.52,48.37,19.9,45.86,21.37,43.14Zm-20,15.6a9.51,9.51,0,0,0,1,.1c8.93,0,17.85,0,26.78,0,.94,0,1.12-.37,1-1.19-.31-2.38-.56-4.77-.9-7.15a4.76,4.76,0,0,0-2.6-3.91c-1.49-.69-3.1-1.13-4.73-1.71-1.34,2.51-2.71,4.89-3.91,7.35-.75,1.53-2,.82-3.11,1-.93.16-1.15-.57-1.48-1.17L9.6,44.91c-1.23.44-2.38.89-3.55,1.27a5.76,5.76,0,0,0-4.12,5.23c-.2,1.58-.31,3.17-.44,4.75C1.42,57,1.41,57.84,1.37,58.74Zm34.85-14c-1.9.88-3.7,1.66-5.44,2.54a1.35,1.35,0,0,0-.57,1.1c.37,3.07.83,6.13,1.22,9.19.1.79.24,1.25,1.23,1.24,7.72,0,15.44,0,23.15,0,.78,0,1.14-.18,1-1-.24-2.2-.29-4.42-.63-6.6-.37-2.38-1.43-4.33-4-5a12.1,12.1,0,0,1-2.51-.9c-.85-.44-1.23-.15-1.61.61-.93,1.83-2.07,3.56-2.83,5.46s-2.15,2.13-3.84,1.89a1.34,1.34,0,0,1-.85-.6c-.67-1.13-1.25-2.31-1.88-3.47C37.89,47.76,37.1,46.35,36.22,44.76Z"/><path class="cls-1" d="M15.83,24.15V19.27H12.58a8.21,8.21,0,0,1-.12-.91c0-4.15,0-8.3,0-12.44,0-.77.26-1,1-1,1.73,0,3.47,0,5.34,0V0h1.27c8.15,0,16.29,0,24.43,0,1,0,1.34.23,1.32,1.28q-.08,6.57,0,13.14c0,1-.32,1.31-1.27,1.23-.76-.06-1.53,0-2.38,0v5.24L36,15.47l-.38.26v3.53H34.11c-3.95,0-7.91,0-11.86,0a2.91,2.91,0,0,0-1.72.67C19,21.23,17.54,22.61,15.83,24.15Zm24.89-9.8c1,0,1.77,0,2.54,0s1.24-.17,1.23-1.15c-.06-3.57-.05-7.14,0-10.71,0-.87-.27-1.13-1.13-1.12q-11.06,0-22.11,0c-.91,0-1.21.24-1.2,1.17.05,3.5.07,7,0,10.48,0,1.13.39,1.34,1.41,1.34,4.61,0,9.23,0,13.85,0a3.29,3.29,0,0,1,2.57,1c.82.83,1.74,1.58,2.86,2.59Zm-23.67,6.5.29.1c.77-.7,1.56-1.37,2.3-2.09A3.07,3.07,0,0,1,22,17.93c3.68.06,7.37,0,11.05.05,1.18,0,1.54-.38,1.36-1.46l-.14-.88H20.53c-1.93,0-1.72.16-1.73-1.78,0-2.17,0-4.35,0-6.52,0-.34-.36-1-.58-1-1.46-.08-2.92,0-4.42,0V18h3.28Z"/><path class="cls-1" d="M49.8,34.43A7.28,7.28,0,1,1,42.73,27,7.21,7.21,0,0,1,49.8,34.43Zm-13.16-.11a5.92,5.92,0,0,0,5.86,6,5.95,5.95,0,1,0,0-11.89A5.79,5.79,0,0,0,36.64,34.32Z"/><path class="cls-1" d="M15.77,41.59a7.29,7.29,0,0,1,0-14.58,7.29,7.29,0,1,1,0,14.58Zm6-7.24a5.91,5.91,0,0,0-5.85-6,5.84,5.84,0,0,0-6,5.77,5.94,5.94,0,1,0,11.87.19Z"/><path class="cls-1" d="M23.86,4.93h17V6.17H39.33c-4.84,0-9.69,0-14.54,0C23.86,6.19,23.47,5.94,23.86,4.93Z"/><path class="cls-1" d="M27.81,10.45l-.06-1.17c.38,0,.71-.1,1-.11,3.64,0,7.28,0,10.92,0,.38,0,1,.34,1.07.61.17.86-.58.72-1.09.72h-11C28.39,10.54,28.13,10.48,27.81,10.45Z"/></g></g></svg>